<svg xmlns="http://www.w3.org/2000/svg" xmlns:xlink="http://www.w3.org/1999/xlink" width="529" zoomAndPan="magnify" viewBox="0 0 396.75 396.749985" height="529" preserveAspectRatio="xMidYMid meet" version="1.2"><defs><clipPath id="633e76f60a"><path d="M 0 0 L 396.5 0 L 396.5 396.5 L 0 396.5 Z M 0 0 "/></clipPath><clipPath id="6989495748"><path d="M 0 0 L 396.398438 0 L 396.398438 396.398438 L 0 396.398438 Z M 0 0 "/></clipPath><clipPath id="bcc2f7329d"><rect x="0" width="178" y="0" height="193"/></clipPath><clipPath id="56d0f0eacd"><path d="M 12 57 L 396.5 57 L 396.5 323 L 12 323 Z M 12 57 "/></clipPath><clipPath id="6c9b8f18d2"><rect x="0" width="385" y="0" height="266"/></clipPath><clipPath id="17accebc1a"><rect x="0" width="397" y="0" height="397"/></clipPath></defs><g id="dd1c39d726"><g clip-rule="nonzero" clip-path="url(#633e76f60a)"><path style=" stroke:none;fill-rule:nonzero;fill:#ffffff;fill-opacity:1;" d="M 0 0 L 396.5 0 L 396.5 396.5 L 0 396.5 Z M 0 0 "/><g><g clip-path="url(#17accebc1a)"><g clip-rule="nonzero" clip-path="url(#6989495748)"><path style=" stroke:none;fill-rule:nonzero;fill:#ffffff;fill-opacity:1;" d="M 0 0 L 396.398438 0 L 396.398438 396.398438 L 0 396.398438 Z M 0 0 "/></g><g transform="matrix(1,0,0,1,71,34)"><g id="f49c2c0544" clip-path="url(#bcc2f7329d)"><g style="fill:#373434;fill-opacity:1;"><g transform="translate(20.335511, 107.952873)"><path style="stroke:none" d="M 65.03125 46.953125 C 64.738281 47.035156 64.378906 47.03125 63.953125 46.9375 C 63.523438 46.851562 63.160156 46.601562 62.859375 46.1875 C 62.265625 45.4375 61.6875 44.582031 61.125 43.625 C 60.570312 42.675781 60.171875 41.675781 59.921875 40.625 C 58.160156 33.96875 57 27.390625 56.4375 20.890625 C 55.875 14.398438 55.628906 8.125 55.703125 2.0625 C 55.785156 -4 56.007812 -9.816406 56.375 -15.390625 C 56.882812 -23.828125 57.914062 -32.144531 59.46875 -40.34375 C 61.03125 -48.550781 62.65625 -56.648438 64.34375 -64.640625 C 64.789062 -66.691406 65.242188 -68.742188 65.703125 -70.796875 C 66.160156 -72.847656 66.585938 -74.890625 66.984375 -76.921875 C 68.515625 -84.191406 68.675781 -88.398438 67.46875 -89.546875 C 67.207031 -89.828125 66.890625 -89.972656 66.515625 -89.984375 C 66.253906 -89.960938 66.015625 -89.921875 65.796875 -89.859375 C 65.453125 -89.753906 65.125 -89.609375 64.8125 -89.421875 C 64.5 -89.242188 64.210938 -89.0625 63.953125 -88.875 L 63.484375 -88.546875 C 62.296875 -87.765625 61.1875 -86.847656 60.15625 -85.796875 C 59.125 -84.753906 58.117188 -83.6875 57.140625 -82.59375 C 50.804688 -75.238281 45.242188 -67.53125 40.453125 -59.46875 C 35.660156 -51.40625 31.222656 -43.425781 27.140625 -35.53125 C 25.816406 -32.851562 24.476562 -30.171875 23.125 -27.484375 C 21.78125 -24.796875 20.445312 -22.113281 19.125 -19.4375 C 17.84375 -16.832031 16.554688 -14.238281 15.265625 -11.65625 C 13.972656 -9.082031 12.6875 -6.492188 11.40625 -3.890625 C 11.28125 -3.660156 11.097656 -3.332031 10.859375 -2.90625 C 10.628906 -2.21875 10.3125 -1.550781 9.90625 -0.90625 C 9.507812 -0.257812 8.96875 0.160156 8.28125 0.359375 C 7.769531 0.503906 7.140625 0.472656 6.390625 0.265625 C 4.953125 -0.179688 4.125 -0.945312 3.90625 -2.03125 C 3.6875 -3.113281 3.578125 -4.179688 3.578125 -5.234375 L 3.5625 -6.25 C 3.15625 -23.96875 5.210938 -42.347656 9.734375 -61.390625 C 9.960938 -62.316406 10.289062 -63.191406 10.71875 -64.015625 C 10.925781 -64.367188 11.203125 -64.597656 11.546875 -64.703125 C 11.867188 -64.679688 12.117188 -64.570312 12.296875 -64.375 C 12.617188 -64.09375 12.773438 -63.789062 12.765625 -63.46875 C 12.753906 -62.414062 12.722656 -61.390625 12.671875 -60.390625 C 12.617188 -59.390625 12.53125 -58.367188 12.40625 -57.328125 L 11.875 -53.09375 C 11.238281 -48.269531 10.625 -43.382812 10.03125 -38.4375 C 9.4375 -33.488281 8.90625 -28.53125 8.4375 -23.5625 C 8.300781 -21.90625 8.171875 -20.238281 8.046875 -18.5625 C 7.921875 -16.882812 7.789062 -15.191406 7.65625 -13.484375 L 7.3125 -8.359375 C 7.320312 -8.128906 7.3125 -7.910156 7.28125 -7.703125 C 7.25 -7.503906 7.203125 -7.28125 7.140625 -7.03125 C 7.097656 -6.769531 7.0625 -6.476562 7.03125 -6.15625 C 7 -5.832031 6.96875 -5.507812 6.9375 -5.1875 C 6.957031 -4.882812 6.984375 -4.582031 7.015625 -4.28125 C 7.046875 -3.976562 7.175781 -3.742188 7.40625 -3.578125 C 7.757812 -3.421875 8.050781 -3.375 8.28125 -3.4375 C 8.5625 -3.519531 8.820312 -3.6875 9.0625 -3.9375 C 9.300781 -4.195312 9.523438 -4.484375 9.734375 -4.796875 C 12.960938 -10.078125 15.59375 -14.75 17.625 -18.8125 C 18.28125 -20.1875 18.960938 -21.5625 19.671875 -22.9375 C 20.390625 -24.320312 21.078125 -25.703125 21.734375 -27.078125 C 25.992188 -35.765625 30.46875 -44.476562 35.15625 -53.21875 C 39.851562 -61.957031 45.179688 -70.328125 51.140625 -78.328125 C 52.660156 -80.335938 54.273438 -82.332031 55.984375 -84.3125 C 57.703125 -86.300781 59.648438 -88.109375 61.828125 -89.734375 L 62.21875 -90.015625 C 62.6875 -90.347656 63.148438 -90.675781 63.609375 -91 C 64.078125 -91.320312 64.566406 -91.554688 65.078125 -91.703125 C 66.046875 -91.984375 67.054688 -91.90625 68.109375 -91.46875 C 69.460938 -90.882812 70.242188 -90.125 70.453125 -89.1875 C 70.671875 -88.257812 70.769531 -87.296875 70.75 -86.296875 L 70.75 -85.640625 C 70.65625 -81.535156 70.226562 -77.492188 69.46875 -73.515625 C 68.707031 -69.535156 67.90625 -65.628906 67.0625 -61.796875 C 66.820312 -60.679688 66.570312 -59.554688 66.3125 -58.421875 C 66.050781 -57.285156 65.800781 -56.160156 65.5625 -55.046875 C 63.9375 -47.316406 62.453125 -39.109375 61.109375 -30.421875 C 59.773438 -21.734375 58.921875 -12.640625 58.546875 -3.140625 C 58.171875 6.359375 58.59375 16.160156 59.8125 26.265625 C 59.894531 26.804688 59.957031 27.347656 60 27.890625 C 60.039062 28.441406 60.085938 29.015625 60.140625 29.609375 C 60.367188 32.273438 60.769531 34.960938 61.34375 37.671875 C 61.914062 40.390625 63.300781 43.066406 65.5 45.703125 C 65.707031 45.960938 65.769531 46.191406 65.6875 46.390625 C 65.65625 46.648438 65.46875 46.832031 65.125 46.9375 Z M 65.03125 46.953125 "/></g></g><g style="fill:#373434;fill-opacity:1;"><g transform="translate(94.117141, 86.368561)"><path style="stroke:none" d="M 26.671875 -22.859375 C 27.148438 -22.929688 27.429688 -22.921875 27.515625 -22.828125 C 27.671875 -22.492188 27.5625 -22.117188 27.1875 -21.703125 C 26.820312 -21.285156 26.382812 -20.894531 25.875 -20.53125 C 25.363281 -20.164062 24.972656 -19.914062 24.703125 -19.78125 C 23.347656 -18.882812 21.925781 -18.21875 20.4375 -17.78125 C 19.0625 -17.382812 17.679688 -17.132812 16.296875 -17.03125 C 15.566406 -17.007812 14.941406 -16.921875 14.421875 -16.765625 C 13.054688 -16.367188 12.265625 -15.363281 12.046875 -13.75 C 11.460938 -9.613281 9.710938 -5.851562 6.796875 -2.46875 C 6.429688 -2.039062 5.984375 -1.609375 5.453125 -1.171875 C 4.929688 -0.742188 4.328125 -0.429688 3.640625 -0.234375 C 2.785156 0.015625 1.882812 0 0.9375 -0.28125 C -0.414062 -0.6875 -1.335938 -1.40625 -1.828125 -2.4375 C -2.328125 -3.46875 -2.710938 -4.566406 -2.984375 -5.734375 C -4.335938 -11.640625 -3.535156 -17.382812 -0.578125 -22.96875 C -0.222656 -23.632812 0.132812 -24.296875 0.5 -24.953125 C 0.875 -25.617188 1.238281 -26.285156 1.59375 -26.953125 C 2.226562 -27.953125 3.0625 -28.597656 4.09375 -28.890625 C 4.769531 -29.097656 5.5 -29.15625 6.28125 -29.0625 C 8.082031 -28.789062 9.585938 -27.648438 10.796875 -25.640625 C 11.847656 -23.972656 12.398438 -22.210938 12.453125 -20.359375 C 12.492188 -19.328125 12.785156 -18.640625 13.328125 -18.296875 C 13.929688 -17.910156 14.84375 -17.875 16.0625 -18.1875 C 16.800781 -18.394531 17.515625 -18.601562 18.203125 -18.8125 C 19.859375 -19.289062 21.332031 -19.84375 22.625 -20.46875 C 22.914062 -20.550781 23.1875 -20.691406 23.4375 -20.890625 C 23.695312 -21.085938 23.941406 -21.3125 24.171875 -21.5625 C 24.472656 -21.78125 24.789062 -22.015625 25.125 -22.265625 C 25.457031 -22.515625 25.828125 -22.695312 26.234375 -22.8125 C 26.398438 -22.863281 26.546875 -22.878906 26.671875 -22.859375 Z M 9.203125 -16.828125 C 9.160156 -16.992188 9.113281 -17.164062 9.0625 -17.34375 C 8.800781 -17.570312 8.554688 -17.742188 8.328125 -17.859375 C 8.109375 -17.984375 7.890625 -18.101562 7.671875 -18.21875 C 7.148438 -18.507812 6.632812 -18.78125 6.125 -19.03125 C 5.625 -19.289062 5.085938 -19.550781 4.515625 -19.8125 C 4.378906 -19.84375 4.160156 -19.960938 3.859375 -20.171875 C 3.546875 -20.398438 3.226562 -20.585938 2.90625 -20.734375 C 2.582031 -20.878906 2.28125 -20.914062 2 -20.84375 C 1.644531 -20.738281 1.378906 -20.472656 1.203125 -20.046875 C 0.222656 -17.222656 -0.457031 -14.515625 -0.84375 -11.921875 C -1.226562 -9.328125 -1.050781 -6.648438 -0.3125 -3.890625 C -0.0390625 -2.984375 0.425781 -2.351562 1.09375 -2 C 1.507812 -1.800781 1.972656 -1.78125 2.484375 -1.9375 C 2.890625 -2.050781 3.289062 -2.289062 3.6875 -2.65625 C 5.78125 -4.570312 7.1875 -6.75 7.90625 -9.1875 C 8.625 -11.632812 9.101562 -13.910156 9.34375 -16.015625 C 9.375 -16.160156 9.328125 -16.429688 9.203125 -16.828125 Z M 8.875 -20.4375 C 8.84375 -21.226562 8.710938 -22.007812 8.484375 -22.78125 C 8.253906 -23.550781 7.628906 -24.191406 6.609375 -24.703125 C 6.304688 -24.921875 5.953125 -24.972656 5.546875 -24.859375 C 5.148438 -24.742188 4.816406 -24.457031 4.546875 -24 C 4.273438 -23.550781 4.125 -23.164062 4.09375 -22.84375 C 4.0625 -21.90625 4.382812 -21.210938 5.0625 -20.765625 C 5.75 -20.316406 6.488281 -19.925781 7.28125 -19.59375 C 7.476562 -19.53125 7.695312 -19.453125 7.9375 -19.359375 C 8.1875 -19.273438 8.421875 -19.175781 8.640625 -19.0625 L 9.078125 -18.828125 L 9.078125 -19.1875 C 9.003906 -19.414062 8.960938 -19.640625 8.953125 -19.859375 C 8.953125 -20.078125 8.925781 -20.269531 8.875 -20.4375 Z M 8.875 -20.4375 "/></g></g><g style="fill:#373434;fill-opacity:1;"><g transform="translate(123.133359, 77.880065)"><path style="stroke:none" d="M 24.671875 -23.65625 L 24.859375 -23.328125 C 24.972656 -23.128906 24.78125 -22.894531 24.28125 -22.625 C 23.78125 -22.351562 23.359375 -22.132812 23.015625 -21.96875 C 22.703125 -21.8125 22.515625 -21.726562 22.453125 -21.71875 C 21.722656 -21.25 20.984375 -20.800781 20.234375 -20.375 C 19.492188 -19.945312 18.769531 -19.46875 18.0625 -18.9375 C 15.300781 -17.144531 13 -15.382812 11.15625 -13.65625 C 9.738281 -12.332031 8.484375 -10.882812 7.390625 -9.3125 C 6.304688 -7.75 5.90625 -5.742188 6.1875 -3.296875 C 6.65625 1.210938 5.289062 5.953125 2.09375 10.921875 C 0.84375 12.828125 -0.632812 14.03125 -2.34375 14.53125 C -3.539062 14.875 -4.675781 14.804688 -5.75 14.328125 C -7.175781 13.691406 -8.125 12.578125 -8.59375 10.984375 C -9.0625 9.390625 -8.90625 7.695312 -8.125 5.90625 C -7.195312 3.59375 -5.914062 1.457031 -4.28125 -0.5 C -2.65625 -2.46875 -0.941406 -4.304688 0.859375 -6.015625 C 1.960938 -7.078125 2.425781 -8.109375 2.25 -9.109375 C 2.082031 -10.109375 1.265625 -11.234375 -0.203125 -12.484375 C -0.765625 -12.878906 -1.289062 -13.296875 -1.78125 -13.734375 C -2.28125 -14.179688 -2.789062 -14.632812 -3.3125 -15.09375 L -4.1875 -15.96875 C -6.132812 -17.6875 -6.640625 -19.394531 -5.703125 -21.09375 C -2.617188 -26.832031 2.175781 -30.867188 8.6875 -33.203125 L 9.109375 -33.328125 C 10.585938 -33.765625 11.863281 -33.640625 12.9375 -32.953125 C 14.082031 -32.242188 14.71875 -31.007812 14.84375 -29.25 C 14.945312 -27.425781 14.332031 -25.628906 13 -23.859375 C 12.914062 -23.722656 12.789062 -23.566406 12.625 -23.390625 C 12.457031 -23.222656 12.257812 -23.109375 12.03125 -23.046875 C 11.800781 -22.972656 11.515625 -23.007812 11.171875 -23.15625 C 10.753906 -23.28125 10.535156 -23.492188 10.515625 -23.796875 C 10.492188 -24.097656 10.503906 -24.472656 10.546875 -24.921875 C 10.710938 -25.648438 10.863281 -26.359375 11 -27.046875 C 11.132812 -27.742188 11.289062 -28.421875 11.46875 -29.078125 C 11.539062 -29.472656 11.566406 -29.851562 11.546875 -30.21875 C 11.523438 -30.59375 11.304688 -30.96875 10.890625 -31.34375 C 10.410156 -31.757812 9.851562 -31.875 9.21875 -31.6875 C 9.101562 -31.65625 8.914062 -31.570312 8.65625 -31.4375 L 8.40625 -31.359375 C 3.09375 -29.179688 -0.695312 -25.8125 -2.96875 -21.25 C -3.707031 -19.738281 -3.15625 -18.382812 -1.3125 -17.1875 C -0.3125 -16.539062 0.644531 -15.789062 1.5625 -14.9375 C 2.507812 -14.050781 3.375 -13.332031 4.15625 -12.78125 C 4.9375 -12.226562 5.785156 -12.085938 6.703125 -12.359375 C 7.210938 -12.503906 7.785156 -12.863281 8.421875 -13.4375 C 10.316406 -15.039062 12.28125 -16.539062 14.3125 -17.9375 C 16.351562 -19.34375 18.289062 -20.625 20.125 -21.78125 C 20.425781 -21.976562 20.90625 -22.269531 21.5625 -22.65625 C 22.226562 -23.039062 22.878906 -23.328125 23.515625 -23.515625 C 23.859375 -23.617188 24.117188 -23.660156 24.296875 -23.640625 C 24.484375 -23.628906 24.609375 -23.632812 24.671875 -23.65625 Z M -0.71875 11.53125 C 3.144531 7.8125 4.644531 2.550781 3.78125 -4.25 L 3.1875 -4.375 C 3.1875 -4.113281 2.945312 -3.742188 2.46875 -3.265625 C 2 -2.796875 1.566406 -2.378906 1.171875 -2.015625 C 0.679688 -1.554688 0.394531 -1.253906 0.3125 -1.109375 C -0.757812 0.253906 -1.707031 1.554688 -2.53125 2.796875 L -2.96875 3.484375 C -3.65625 4.546875 -4.34375 5.75 -5.03125 7.09375 C -5.71875 8.445312 -5.945312 9.738281 -5.71875 10.96875 C -5.5625 11.726562 -5.210938 12.273438 -4.671875 12.609375 C -4.160156 12.898438 -3.503906 12.929688 -2.703125 12.703125 C -2.242188 12.566406 -1.84375 12.382812 -1.5 12.15625 C -1.164062 11.9375 -0.90625 11.726562 -0.71875 11.53125 Z M -0.71875 11.53125 "/></g></g></g></g><g clip-rule="nonzero" clip-path="url(#56d0f0eacd)"><g transform="matrix(1,0,0,1,12,57)"><g id="5668da3f5d" clip-path="url(#6c9b8f18d2)"><g style="fill:#373434;fill-opacity:1;"><g transform="translate(23.855833, 181.234705)"><path style="stroke:none" d="M 41.765625 8.40625 C 34.234375 10.613281 27.003906 10.15625 20.078125 7.03125 C 16.367188 5.332031 12.984375 2.90625 9.921875 -0.25 C 6.859375 -3.414062 4.335938 -7.097656 2.359375 -11.296875 C -1.203125 -18.859375 -2.707031 -27.179688 -2.15625 -36.265625 C -0.90625 -55.890625 5.75 -72.851562 17.8125 -87.15625 C 21.113281 -91.09375 24.851562 -93.671875 29.03125 -94.890625 L 29.796875 -95.125 C 33.472656 -96.082031 37.054688 -95.675781 40.546875 -93.90625 C 43.898438 -92.164062 46.21875 -89.628906 47.5 -86.296875 C 49.738281 -80.367188 49.972656 -73.960938 48.203125 -67.078125 C 46.554688 -60.453125 44.179688 -54.269531 41.078125 -48.53125 C 40.992188 -48.445312 40.921875 -48.335938 40.859375 -48.203125 C 40.804688 -48.066406 40.765625 -47.957031 40.734375 -47.875 C 40.503906 -47.375 40.25 -46.910156 39.96875 -46.484375 C 39.695312 -46.066406 39.363281 -45.796875 38.96875 -45.671875 C 38.445312 -45.523438 37.816406 -45.65625 37.078125 -46.0625 C 36.335938 -46.46875 35.878906 -46.859375 35.703125 -47.234375 C 35.585938 -47.628906 35.671875 -48.039062 35.953125 -48.46875 C 36.242188 -48.894531 36.539062 -49.3125 36.84375 -49.71875 C 37.164062 -50.050781 37.382812 -50.269531 37.5 -50.375 C 43.125 -57.78125 46.5 -65.703125 47.625 -74.140625 C 47.84375 -75.742188 47.90625 -77.585938 47.8125 -79.671875 C 47.726562 -81.765625 47.066406 -83.992188 45.828125 -86.359375 C 44.085938 -89.503906 41.769531 -91.703125 38.875 -92.953125 C 36.394531 -94.023438 33.867188 -94.1875 31.296875 -93.4375 C 30.203125 -93.125 29.140625 -92.628906 28.109375 -91.953125 C 24.554688 -89.722656 21.691406 -87.019531 19.515625 -83.84375 C 17.347656 -80.664062 15.378906 -77.332031 13.609375 -73.84375 C 9.566406 -66.050781 6.640625 -58.585938 4.828125 -51.453125 C 3.015625 -44.328125 2.222656 -37.203125 2.453125 -30.078125 C 2.546875 -27.191406 2.878906 -24.144531 3.453125 -20.9375 C 4.023438 -17.726562 5.066406 -14.484375 6.578125 -11.203125 C 8.085938 -7.929688 10.351562 -4.726562 13.375 -1.59375 C 16.65625 1.78125 20.519531 4.195312 24.96875 5.65625 C 29.425781 7.113281 33.863281 7.441406 38.28125 6.640625 C 39.738281 6.328125 41.179688 5.960938 42.609375 5.546875 C 47.117188 4.234375 51 2.421875 54.25 0.109375 C 57.5 -2.203125 60.257812 -4.710938 62.53125 -7.421875 C 64.8125 -10.128906 66.796875 -12.753906 68.484375 -15.296875 C 71.148438 -19.484375 73.507812 -24.539062 75.5625 -30.46875 C 75.8125 -31.09375 76.054688 -31.71875 76.296875 -32.34375 C 76.535156 -32.976562 76.816406 -33.617188 77.140625 -34.265625 L 77.34375 -34.890625 C 77.457031 -35.109375 77.5625 -35.328125 77.65625 -35.546875 C 77.75 -35.765625 77.851562 -35.976562 77.96875 -36.1875 C 78.101562 -36.34375 78.226562 -36.4375 78.34375 -36.46875 C 78.40625 -36.488281 78.484375 -36.5 78.578125 -36.5 C 78.671875 -36.507812 78.78125 -36.40625 78.90625 -36.1875 C 79.050781 -35.914062 79.097656 -35.597656 79.046875 -35.234375 C 78.992188 -34.878906 78.910156 -34.566406 78.796875 -34.296875 L 78.71875 -33.90625 C 78.507812 -32.96875 78.226562 -32.03125 77.875 -31.09375 C 77.53125 -30.164062 77.1875 -29.25 76.84375 -28.34375 L 76.46875 -27.390625 C 76.019531 -26.335938 75.566406 -25.273438 75.109375 -24.203125 C 74.648438 -23.128906 74.203125 -22.066406 73.765625 -21.015625 C 71.285156 -15.515625 68.363281 -10.757812 65 -6.75 C 59.53125 -0.3125 52.601562 4.46875 44.21875 7.59375 C 43.4375 7.882812 42.617188 8.15625 41.765625 8.40625 Z M 41.765625 8.40625 "/></g></g><g style="fill:#373434;fill-opacity:1;"><g transform="translate(104.484951, 157.647208)"><path style="stroke:none" d="M 39.125 -29.5625 C 39.414062 -29.582031 39.601562 -29.578125 39.6875 -29.546875 C 39.9375 -29.304688 39.929688 -28.898438 39.671875 -28.328125 C 35.585938 -20.441406 30.007812 -12.925781 22.9375 -5.78125 L 22.421875 -5.359375 C 22.191406 -5.035156 21.914062 -4.734375 21.59375 -4.453125 C 21.28125 -4.179688 20.921875 -3.984375 20.515625 -3.859375 C 19.953125 -3.691406 19.273438 -3.773438 18.484375 -4.109375 C 17.546875 -4.578125 17.003906 -5.113281 16.859375 -5.71875 C 16.722656 -6.332031 16.660156 -7.015625 16.671875 -7.765625 C 16.703125 -7.878906 16.726562 -8.003906 16.75 -8.140625 C 16.78125 -8.285156 16.773438 -8.414062 16.734375 -8.53125 C 16.710938 -10.5 16.84375 -12.4375 17.125 -14.34375 C 17.40625 -16.25 17.71875 -18.09375 18.0625 -19.875 C 18.0625 -19.875 18.144531 -20.269531 18.3125 -21.0625 C 18.488281 -21.851562 18.679688 -22.695312 18.890625 -23.59375 C 19.097656 -24.488281 19.242188 -25.109375 19.328125 -25.453125 C 19.304688 -25.515625 19.367188 -25.71875 19.515625 -26.0625 C 19.804688 -26.945312 20.019531 -27.84375 20.15625 -28.75 C 20.289062 -29.65625 20.207031 -30.3125 19.90625 -30.71875 C 19.71875 -30.96875 19.488281 -31.125 19.21875 -31.1875 C 19.039062 -31.1875 18.890625 -31.171875 18.765625 -31.140625 C 18.191406 -30.972656 17.65625 -30.472656 17.15625 -29.640625 C 16.65625 -28.816406 16.40625 -28.40625 16.40625 -28.40625 C 16.144531 -27.832031 15.910156 -27.144531 15.703125 -26.34375 C 15.503906 -25.539062 15.503906 -24.703125 15.703125 -23.828125 L 15.8125 -23.484375 C 15.875 -23.253906 15.929688 -22.992188 15.984375 -22.703125 C 16.035156 -22.410156 15.976562 -22.242188 15.8125 -22.203125 C 15.75 -22.179688 15.601562 -22.179688 15.375 -22.203125 C 15.15625 -22.234375 14.828125 -22.367188 14.390625 -22.609375 L 14.0625 -22.78125 L 13.71875 -22.03125 C 13.582031 -21.875 13.46875 -21.6875 13.375 -21.46875 C 13.28125 -21.257812 13.191406 -21.082031 13.109375 -20.9375 C 12.640625 -19.988281 12.207031 -19.066406 11.8125 -18.171875 C 11.425781 -17.285156 11.019531 -16.410156 10.59375 -15.546875 C 9.6875 -13.554688 8.75 -11.566406 7.78125 -9.578125 C 6.820312 -7.585938 5.710938 -5.664062 4.453125 -3.8125 L 4.015625 -3.125 C 3.628906 -2.507812 3.207031 -1.914062 2.75 -1.34375 C 2.300781 -0.78125 1.734375 -0.398438 1.046875 -0.203125 C 0.484375 -0.0351562 -0.171875 -0.0664062 -0.921875 -0.296875 C -2.367188 -0.796875 -3.234375 -1.625 -3.515625 -2.78125 C -3.796875 -3.9375 -3.945312 -5.101562 -3.96875 -6.28125 L -4.046875 -6.8125 C -4.273438 -12.6875 -3.195312 -18.109375 -0.8125 -23.078125 C 0.84375 -26.546875 3.359375 -28.769531 6.734375 -29.75 L 6.984375 -29.828125 C 7.722656 -30.046875 8.445312 -30.210938 9.15625 -30.328125 C 9.875 -30.441406 10.460938 -30.320312 10.921875 -29.96875 C 12.390625 -28.78125 13.582031 -28.316406 14.5 -28.578125 C 14.957031 -28.710938 15.3125 -28.972656 15.5625 -29.359375 C 15.820312 -29.753906 16.097656 -30.175781 16.390625 -30.625 L 16.59375 -30.953125 C 16.957031 -31.617188 17.410156 -32.1875 17.953125 -32.65625 C 18.203125 -32.851562 18.441406 -33.03125 18.671875 -33.1875 C 18.898438 -33.351562 19.128906 -33.46875 19.359375 -33.53125 C 19.753906 -33.644531 20.195312 -33.625 20.6875 -33.46875 C 21.257812 -33.207031 21.585938 -32.867188 21.671875 -32.453125 C 21.765625 -32.046875 21.765625 -31.578125 21.671875 -31.046875 C 21.316406 -28.648438 20.953125 -26.300781 20.578125 -24 C 20.203125 -21.695312 19.820312 -19.398438 19.4375 -17.109375 L 18.84375 -13.40625 C 18.6875 -12.675781 18.578125 -11.929688 18.515625 -11.171875 C 18.460938 -10.421875 18.410156 -9.695312 18.359375 -9 L 18.3125 -7.578125 C 18.257812 -6.953125 18.359375 -6.519531 18.609375 -6.28125 C 18.765625 -6.144531 18.976562 -6.050781 19.25 -6 C 19.425781 -5.988281 19.628906 -6.015625 19.859375 -6.078125 C 20.429688 -6.242188 21.035156 -6.609375 21.671875 -7.171875 C 22.316406 -7.742188 22.757812 -8.15625 23 -8.40625 C 24.46875 -10.1875 25.894531 -11.976562 27.28125 -13.78125 C 28.675781 -15.582031 30.015625 -17.351562 31.296875 -19.09375 C 31.753906 -19.664062 32.175781 -20.238281 32.5625 -20.8125 C 32.945312 -21.382812 33.367188 -21.957031 33.828125 -22.53125 C 34.085938 -22.925781 34.351562 -23.332031 34.625 -23.75 C 34.90625 -24.164062 35.203125 -24.578125 35.515625 -24.984375 C 35.648438 -25.203125 35.78125 -25.40625 35.90625 -25.59375 C 36.039062 -25.789062 36.203125 -25.984375 36.390625 -26.171875 C 36.585938 -26.535156 36.820312 -26.894531 37.09375 -27.25 C 37.363281 -27.601562 37.628906 -27.976562 37.890625 -28.375 L 38.1875 -28.640625 C 38.3125 -28.804688 38.457031 -28.988281 38.625 -29.1875 C 38.789062 -29.382812 38.957031 -29.507812 39.125 -29.5625 Z M 13.171875 -25.5 C 13.554688 -26.300781 13.304688 -27.035156 12.421875 -27.703125 C 11.398438 -28.453125 10.378906 -28.679688 9.359375 -28.390625 C 9.242188 -28.347656 9.128906 -28.3125 9.015625 -28.28125 C 7.671875 -27.582031 6.546875 -26.757812 5.640625 -25.8125 C 3.566406 -23.59375 2.082031 -21.140625 1.1875 -18.453125 C 0.300781 -15.773438 -0.394531 -13.191406 -0.90625 -10.703125 C -0.945312 -10.441406 -1.003906 -10.175781 -1.078125 -9.90625 C -1.160156 -9.632812 -1.21875 -9.367188 -1.25 -9.109375 C -1.457031 -8.492188 -1.617188 -7.859375 -1.734375 -7.203125 C -1.859375 -6.546875 -1.90625 -5.851562 -1.875 -5.125 C -1.851562 -4.820312 -1.734375 -4.296875 -1.515625 -3.546875 C -1.296875 -2.804688 -0.929688 -2.320312 -0.421875 -2.09375 C -0.179688 -1.914062 0.078125 -1.867188 0.359375 -1.953125 C 0.585938 -2.015625 0.84375 -2.1875 1.125 -2.46875 C 3.144531 -4.726562 4.796875 -7.191406 6.078125 -9.859375 C 7.367188 -12.535156 8.582031 -15.21875 9.71875 -17.90625 C 10.289062 -19.175781 10.851562 -20.445312 11.40625 -21.71875 C 11.957031 -23 12.546875 -24.257812 13.171875 -25.5 Z M 13.171875 -25.5 "/></g></g><g style="fill:#373434;fill-opacity:1;"><g transform="translate(146.169015, 145.45282)"><path style="stroke:none" d="M 24.671875 -23.65625 L 24.859375 -23.328125 C 24.972656 -23.128906 24.78125 -22.894531 24.28125 -22.625 C 23.78125 -22.351562 23.359375 -22.132812 23.015625 -21.96875 C 22.703125 -21.8125 22.515625 -21.726562 22.453125 -21.71875 C 21.722656 -21.25 20.984375 -20.800781 20.234375 -20.375 C 19.492188 -19.945312 18.769531 -19.46875 18.0625 -18.9375 C 15.300781 -17.144531 13 -15.382812 11.15625 -13.65625 C 9.738281 -12.332031 8.484375 -10.882812 7.390625 -9.3125 C 6.304688 -7.75 5.90625 -5.742188 6.1875 -3.296875 C 6.65625 1.210938 5.289062 5.953125 2.09375 10.921875 C 0.84375 12.828125 -0.632812 14.03125 -2.34375 14.53125 C -3.539062 14.875 -4.675781 14.804688 -5.75 14.328125 C -7.175781 13.691406 -8.125 12.578125 -8.59375 10.984375 C -9.0625 9.390625 -8.90625 7.695312 -8.125 5.90625 C -7.195312 3.59375 -5.914062 1.457031 -4.28125 -0.5 C -2.65625 -2.46875 -0.941406 -4.304688 0.859375 -6.015625 C 1.960938 -7.078125 2.425781 -8.109375 2.25 -9.109375 C 2.082031 -10.109375 1.265625 -11.234375 -0.203125 -12.484375 C -0.765625 -12.878906 -1.289062 -13.296875 -1.78125 -13.734375 C -2.28125 -14.179688 -2.789062 -14.632812 -3.3125 -15.09375 L -4.1875 -15.96875 C -6.132812 -17.6875 -6.640625 -19.394531 -5.703125 -21.09375 C -2.617188 -26.832031 2.175781 -30.867188 8.6875 -33.203125 L 9.109375 -33.328125 C 10.585938 -33.765625 11.863281 -33.640625 12.9375 -32.953125 C 14.082031 -32.242188 14.71875 -31.007812 14.84375 -29.25 C 14.945312 -27.425781 14.332031 -25.628906 13 -23.859375 C 12.914062 -23.722656 12.789062 -23.566406 12.625 -23.390625 C 12.457031 -23.222656 12.257812 -23.109375 12.03125 -23.046875 C 11.800781 -22.972656 11.515625 -23.007812 11.171875 -23.15625 C 10.753906 -23.28125 10.535156 -23.492188 10.515625 -23.796875 C 10.492188 -24.097656 10.503906 -24.472656 10.546875 -24.921875 C 10.710938 -25.648438 10.863281 -26.359375 11 -27.046875 C 11.132812 -27.742188 11.289062 -28.421875 11.46875 -29.078125 C 11.539062 -29.472656 11.566406 -29.851562 11.546875 -30.21875 C 11.523438 -30.59375 11.304688 -30.96875 10.890625 -31.34375 C 10.410156 -31.757812 9.851562 -31.875 9.21875 -31.6875 C 9.101562 -31.65625 8.914062 -31.570312 8.65625 -31.4375 L 8.40625 -31.359375 C 3.09375 -29.179688 -0.695312 -25.8125 -2.96875 -21.25 C -3.707031 -19.738281 -3.15625 -18.382812 -1.3125 -17.1875 C -0.3125 -16.539062 0.644531 -15.789062 1.5625 -14.9375 C 2.507812 -14.050781 3.375 -13.332031 4.15625 -12.78125 C 4.9375 -12.226562 5.785156 -12.085938 6.703125 -12.359375 C 7.210938 -12.503906 7.785156 -12.863281 8.421875 -13.4375 C 10.316406 -15.039062 12.28125 -16.539062 14.3125 -17.9375 C 16.351562 -19.34375 18.289062 -20.625 20.125 -21.78125 C 20.425781 -21.976562 20.90625 -22.269531 21.5625 -22.65625 C 22.226562 -23.039062 22.878906 -23.328125 23.515625 -23.515625 C 23.859375 -23.617188 24.117188 -23.660156 24.296875 -23.640625 C 24.484375 -23.628906 24.609375 -23.632812 24.671875 -23.65625 Z M -0.71875 11.53125 C 3.144531 7.8125 4.644531 2.550781 3.78125 -4.25 L 3.1875 -4.375 C 3.1875 -4.113281 2.945312 -3.742188 2.46875 -3.265625 C 2 -2.796875 1.566406 -2.378906 1.171875 -2.015625 C 0.679688 -1.554688 0.394531 -1.253906 0.3125 -1.109375 C -0.757812 0.253906 -1.707031 1.554688 -2.53125 2.796875 L -2.96875 3.484375 C -3.65625 4.546875 -4.34375 5.75 -5.03125 7.09375 C -5.71875 8.445312 -5.945312 9.738281 -5.71875 10.96875 C -5.5625 11.726562 -5.210938 12.273438 -4.671875 12.609375 C -4.160156 12.898438 -3.503906 12.929688 -2.703125 12.703125 C -2.242188 12.566406 -1.84375 12.382812 -1.5 12.15625 C -1.164062 11.9375 -0.90625 11.726562 -0.71875 11.53125 Z M -0.71875 11.53125 "/></g></g><g style="fill:#373434;fill-opacity:1;"><g transform="translate(172.959795, 137.61536)"><path style="stroke:none" d="M 39.125 -29.5625 C 39.414062 -29.582031 39.601562 -29.578125 39.6875 -29.546875 C 39.9375 -29.304688 39.929688 -28.898438 39.671875 -28.328125 C 35.585938 -20.441406 30.007812 -12.925781 22.9375 -5.78125 L 22.421875 -5.359375 C 22.191406 -5.035156 21.914062 -4.734375 21.59375 -4.453125 C 21.28125 -4.179688 20.921875 -3.984375 20.515625 -3.859375 C 19.953125 -3.691406 19.273438 -3.773438 18.484375 -4.109375 C 17.546875 -4.578125 17.003906 -5.113281 16.859375 -5.71875 C 16.722656 -6.332031 16.660156 -7.015625 16.671875 -7.765625 C 16.703125 -7.878906 16.726562 -8.003906 16.75 -8.140625 C 16.78125 -8.285156 16.773438 -8.414062 16.734375 -8.53125 C 16.710938 -10.5 16.84375 -12.4375 17.125 -14.34375 C 17.40625 -16.25 17.71875 -18.09375 18.0625 -19.875 C 18.0625 -19.875 18.144531 -20.269531 18.3125 -21.0625 C 18.488281 -21.851562 18.679688 -22.695312 18.890625 -23.59375 C 19.097656 -24.488281 19.242188 -25.109375 19.328125 -25.453125 C 19.304688 -25.515625 19.367188 -25.71875 19.515625 -26.0625 C 19.804688 -26.945312 20.019531 -27.84375 20.15625 -28.75 C 20.289062 -29.65625 20.207031 -30.3125 19.90625 -30.71875 C 19.71875 -30.96875 19.488281 -31.125 19.21875 -31.1875 C 19.039062 -31.1875 18.890625 -31.171875 18.765625 -31.140625 C 18.191406 -30.972656 17.65625 -30.472656 17.15625 -29.640625 C 16.65625 -28.816406 16.40625 -28.40625 16.40625 -28.40625 C 16.144531 -27.832031 15.910156 -27.144531 15.703125 -26.34375 C 15.503906 -25.539062 15.503906 -24.703125 15.703125 -23.828125 L 15.8125 -23.484375 C 15.875 -23.253906 15.929688 -22.992188 15.984375 -22.703125 C 16.035156 -22.410156 15.976562 -22.242188 15.8125 -22.203125 C 15.75 -22.179688 15.601562 -22.179688 15.375 -22.203125 C 15.15625 -22.234375 14.828125 -22.367188 14.390625 -22.609375 L 14.0625 -22.78125 L 13.71875 -22.03125 C 13.582031 -21.875 13.46875 -21.6875 13.375 -21.46875 C 13.28125 -21.257812 13.191406 -21.082031 13.109375 -20.9375 C 12.640625 -19.988281 12.207031 -19.066406 11.8125 -18.171875 C 11.425781 -17.285156 11.019531 -16.410156 10.59375 -15.546875 C 9.6875 -13.554688 8.75 -11.566406 7.78125 -9.578125 C 6.820312 -7.585938 5.710938 -5.664062 4.453125 -3.8125 L 4.015625 -3.125 C 3.628906 -2.507812 3.207031 -1.914062 2.75 -1.34375 C 2.300781 -0.78125 1.734375 -0.398438 1.046875 -0.203125 C 0.484375 -0.0351562 -0.171875 -0.0664062 -0.921875 -0.296875 C -2.367188 -0.796875 -3.234375 -1.625 -3.515625 -2.78125 C -3.796875 -3.9375 -3.945312 -5.101562 -3.96875 -6.28125 L -4.046875 -6.8125 C -4.273438 -12.6875 -3.195312 -18.109375 -0.8125 -23.078125 C 0.84375 -26.546875 3.359375 -28.769531 6.734375 -29.75 L 6.984375 -29.828125 C 7.722656 -30.046875 8.445312 -30.210938 9.15625 -30.328125 C 9.875 -30.441406 10.460938 -30.320312 10.921875 -29.96875 C 12.390625 -28.78125 13.582031 -28.316406 14.5 -28.578125 C 14.957031 -28.710938 15.3125 -28.972656 15.5625 -29.359375 C 15.820312 -29.753906 16.097656 -30.175781 16.390625 -30.625 L 16.59375 -30.953125 C 16.957031 -31.617188 17.410156 -32.1875 17.953125 -32.65625 C 18.203125 -32.851562 18.441406 -33.03125 18.671875 -33.1875 C 18.898438 -33.351562 19.128906 -33.46875 19.359375 -33.53125 C 19.753906 -33.644531 20.195312 -33.625 20.6875 -33.46875 C 21.257812 -33.207031 21.585938 -32.867188 21.671875 -32.453125 C 21.765625 -32.046875 21.765625 -31.578125 21.671875 -31.046875 C 21.316406 -28.648438 20.953125 -26.300781 20.578125 -24 C 20.203125 -21.695312 19.820312 -19.398438 19.4375 -17.109375 L 18.84375 -13.40625 C 18.6875 -12.675781 18.578125 -11.929688 18.515625 -11.171875 C 18.460938 -10.421875 18.410156 -9.695312 18.359375 -9 L 18.3125 -7.578125 C 18.257812 -6.953125 18.359375 -6.519531 18.609375 -6.28125 C 18.765625 -6.144531 18.976562 -6.050781 19.25 -6 C 19.425781 -5.988281 19.628906 -6.015625 19.859375 -6.078125 C 20.429688 -6.242188 21.035156 -6.609375 21.671875 -7.171875 C 22.316406 -7.742188 22.757812 -8.15625 23 -8.40625 C 24.46875 -10.1875 25.894531 -11.976562 27.28125 -13.78125 C 28.675781 -15.582031 30.015625 -17.351562 31.296875 -19.09375 C 31.753906 -19.664062 32.175781 -20.238281 32.5625 -20.8125 C 32.945312 -21.382812 33.367188 -21.957031 33.828125 -22.53125 C 34.085938 -22.925781 34.351562 -23.332031 34.625 -23.75 C 34.90625 -24.164062 35.203125 -24.578125 35.515625 -24.984375 C 35.648438 -25.203125 35.78125 -25.40625 35.90625 -25.59375 C 36.039062 -25.789062 36.203125 -25.984375 36.390625 -26.171875 C 36.585938 -26.535156 36.820312 -26.894531 37.09375 -27.25 C 37.363281 -27.601562 37.628906 -27.976562 37.890625 -28.375 L 38.1875 -28.640625 C 38.3125 -28.804688 38.457031 -28.988281 38.625 -29.1875 C 38.789062 -29.382812 38.957031 -29.507812 39.125 -29.5625 Z M 13.171875 -25.5 C 13.554688 -26.300781 13.304688 -27.035156 12.421875 -27.703125 C 11.398438 -28.453125 10.378906 -28.679688 9.359375 -28.390625 C 9.242188 -28.347656 9.128906 -28.3125 9.015625 -28.28125 C 7.671875 -27.582031 6.546875 -26.757812 5.640625 -25.8125 C 3.566406 -23.59375 2.082031 -21.140625 1.1875 -18.453125 C 0.300781 -15.773438 -0.394531 -13.191406 -0.90625 -10.703125 C -0.945312 -10.441406 -1.003906 -10.175781 -1.078125 -9.90625 C -1.160156 -9.632812 -1.21875 -9.367188 -1.25 -9.109375 C -1.457031 -8.492188 -1.617188 -7.859375 -1.734375 -7.203125 C -1.859375 -6.546875 -1.90625 -5.851562 -1.875 -5.125 C -1.851562 -4.820312 -1.734375 -4.296875 -1.515625 -3.546875 C -1.296875 -2.804688 -0.929688 -2.320312 -0.421875 -2.09375 C -0.179688 -1.914062 0.078125 -1.867188 0.359375 -1.953125 C 0.585938 -2.015625 0.84375 -2.1875 1.125 -2.46875 C 3.144531 -4.726562 4.796875 -7.191406 6.078125 -9.859375 C 7.367188 -12.535156 8.582031 -15.21875 9.71875 -17.90625 C 10.289062 -19.175781 10.851562 -20.445312 11.40625 -21.71875 C 11.957031 -23 12.546875 -24.257812 13.171875 -25.5 Z M 13.171875 -25.5 "/></g></g><g style="fill:#373434;fill-opacity:1;"><g transform="translate(214.643854, 125.420973)"><path style="stroke:none" d="M 60.140625 -31.078125 C 60.242188 -30.910156 60.328125 -30.617188 60.390625 -30.203125 C 60.453125 -29.796875 60.320312 -29.078125 60 -28.046875 C 58.351562 -22.671875 55.875 -17.707031 52.5625 -13.15625 C 50.96875 -10.945312 49.222656 -8.976562 47.328125 -7.25 L 47.03125 -6.96875 C 46.195312 -6.238281 45.160156 -5.378906 43.921875 -4.390625 C 42.691406 -3.398438 41.363281 -2.695312 39.9375 -2.28125 C 38.050781 -1.726562 36.300781 -1.867188 34.6875 -2.703125 C 33.019531 -3.578125 31.972656 -4.632812 31.546875 -5.875 C 31.117188 -7.113281 30.875 -8.375 30.8125 -9.65625 C 30.8125 -10.28125 30.898438 -10.878906 31.078125 -11.453125 C 31.253906 -12.035156 31.441406 -12.601562 31.640625 -13.15625 C 31.691406 -13.414062 31.765625 -13.648438 31.859375 -13.859375 C 31.953125 -14.078125 32.019531 -14.320312 32.0625 -14.59375 C 32.257812 -15.195312 32.375 -15.859375 32.40625 -16.578125 C 32.445312 -17.304688 32.265625 -17.828125 31.859375 -18.140625 C 31.515625 -18.484375 31.035156 -18.5625 30.421875 -18.375 C 30.128906 -18.289062 29.828125 -18.140625 29.515625 -17.921875 C 28.585938 -17.472656 27.832031 -16.863281 27.25 -16.09375 C 26.664062 -15.332031 26.117188 -14.566406 25.609375 -13.796875 C 25.304688 -13.347656 25.007812 -12.878906 24.71875 -12.390625 C 24.425781 -11.910156 24.0625 -11.476562 23.625 -11.09375 C 23.445312 -10.851562 23.25 -10.625 23.03125 -10.40625 C 22.8125 -10.1875 22.617188 -9.957031 22.453125 -9.71875 C 21.867188 -9.125 21.273438 -8.519531 20.671875 -7.90625 C 20.078125 -7.300781 19.378906 -6.789062 18.578125 -6.375 C 18.203125 -6.1875 17.816406 -6.035156 17.421875 -5.921875 C 16.554688 -5.671875 15.832031 -5.707031 15.25 -6.03125 C 14.5 -6.4375 13.984375 -7.335938 13.703125 -8.734375 C 13.328125 -10.242188 13.242188 -11.691406 13.453125 -13.078125 C 13.671875 -14.472656 13.925781 -15.835938 14.21875 -17.171875 C 14.394531 -17.835938 14.5625 -18.488281 14.71875 -19.125 C 14.875 -19.757812 15.003906 -20.40625 15.109375 -21.0625 C 15.285156 -21.539062 15.425781 -22.015625 15.53125 -22.484375 C 15.632812 -22.953125 15.75 -23.414062 15.875 -23.875 C 15.925781 -24.144531 16 -24.429688 16.09375 -24.734375 C 16.1875 -25.035156 16.285156 -25.332031 16.390625 -25.625 C 16.535156 -25.957031 16.671875 -26.332031 16.796875 -26.75 C 16.921875 -27.164062 17.023438 -27.566406 17.109375 -27.953125 C 17.316406 -29.316406 17.226562 -30.128906 16.84375 -30.390625 C 16.53125 -30.609375 16.175781 -30.660156 15.78125 -30.546875 C 15.382812 -30.429688 15.035156 -30.203125 14.734375 -29.859375 C 14.429688 -29.523438 14.253906 -29.320312 14.203125 -29.25 C 13.285156 -27.988281 12.445312 -26.675781 11.6875 -25.3125 C 10.9375 -23.945312 10.203125 -22.597656 9.484375 -21.265625 C 9.203125 -20.753906 8.929688 -20.242188 8.671875 -19.734375 C 8.421875 -19.222656 8.15625 -18.710938 7.875 -18.203125 C 5.5 -13.835938 3.070312 -9.53125 0.59375 -5.28125 C 0.375 -4.96875 0.148438 -4.6875 -0.078125 -4.4375 C -0.316406 -4.1875 -0.582031 -4.019531 -0.875 -3.9375 C -1.039062 -3.882812 -1.179688 -3.84375 -1.296875 -3.8125 C -1.722656 -3.800781 -2.132812 -3.9375 -2.53125 -4.21875 C -2.925781 -4.507812 -3.234375 -4.8125 -3.453125 -5.125 C -3.679688 -5.488281 -3.828125 -5.878906 -3.890625 -6.296875 C -3.953125 -6.710938 -3.984375 -7.140625 -3.984375 -7.578125 C -4.179688 -12.285156 -3.597656 -16.753906 -2.234375 -20.984375 C -2.191406 -21.253906 -2.109375 -21.5 -1.984375 -21.71875 C -1.859375 -21.9375 -1.726562 -22.128906 -1.59375 -22.296875 C -1.40625 -22.472656 -1.195312 -22.597656 -0.96875 -22.671875 C -0.675781 -22.753906 -0.390625 -22.742188 -0.109375 -22.640625 C 0.160156 -22.535156 0.390625 -22.367188 0.578125 -22.140625 C 0.765625 -21.921875 0.894531 -21.695312 0.96875 -21.46875 C 1.03125 -21.25 1.070312 -21 1.09375 -20.71875 C 1.125 -20.445312 1.109375 -20.175781 1.046875 -19.90625 L 0.21875 -10.671875 C 0.175781 -10.160156 0.328125 -9.765625 0.671875 -9.484375 C 0.828125 -9.359375 1.015625 -9.328125 1.234375 -9.390625 C 1.460938 -9.453125 1.648438 -9.5625 1.796875 -9.71875 C 2.679688 -11.164062 3.53125 -12.609375 4.34375 -14.046875 C 5.15625 -15.492188 5.96875 -16.953125 6.78125 -18.421875 C 8.1875 -20.816406 9.601562 -23.226562 11.03125 -25.65625 C 12.457031 -28.09375 13.9375 -30.5 15.46875 -32.875 C 15.75 -33.195312 16.039062 -33.523438 16.34375 -33.859375 C 16.65625 -34.191406 17.007812 -34.414062 17.40625 -34.53125 C 17.625 -34.601562 17.859375 -34.644531 18.109375 -34.65625 C 18.804688 -34.613281 19.429688 -34.332031 19.984375 -33.8125 C 20.535156 -33.289062 20.863281 -32.765625 20.96875 -32.234375 C 21.144531 -31.609375 21.175781 -30.941406 21.0625 -30.234375 C 20.957031 -29.523438 20.820312 -28.832031 20.65625 -28.15625 C 20.613281 -27.894531 20.578125 -27.648438 20.546875 -27.421875 C 20.523438 -27.203125 20.476562 -26.992188 20.40625 -26.796875 C 20.226562 -25.734375 20.035156 -24.691406 19.828125 -23.671875 C 19.628906 -22.660156 19.441406 -21.632812 19.265625 -20.59375 L 19.046875 -19.703125 C 18.828125 -18.585938 18.59375 -17.429688 18.34375 -16.234375 C 18.09375 -15.046875 17.84375 -13.832031 17.59375 -12.59375 L 16.609375 -8.015625 L 17.234375 -8.390625 C 18.585938 -9.097656 19.710938 -9.859375 20.609375 -10.671875 C 21.515625 -11.492188 22.367188 -12.332031 23.171875 -13.1875 C 23.515625 -13.539062 23.851562 -13.875 24.1875 -14.1875 C 24.53125 -14.507812 24.875 -14.835938 25.21875 -15.171875 C 25.550781 -15.460938 25.875 -15.757812 26.1875 -16.0625 C 26.5 -16.375 26.796875 -16.695312 27.078125 -17.03125 C 27.703125 -17.644531 28.367188 -18.269531 29.078125 -18.90625 C 29.785156 -19.550781 30.609375 -20.070312 31.546875 -20.46875 C 31.828125 -20.613281 32.078125 -20.71875 32.296875 -20.78125 C 32.648438 -20.882812 33.019531 -20.945312 33.40625 -20.96875 C 33.800781 -20.988281 34.15625 -20.894531 34.46875 -20.6875 C 35.019531 -20.28125 35.296875 -19.523438 35.296875 -18.421875 C 35.304688 -17.546875 35.269531 -16.664062 35.1875 -15.78125 C 35.113281 -14.894531 35.046875 -14.039062 34.984375 -13.21875 C 34.929688 -12.507812 34.863281 -11.816406 34.78125 -11.140625 C 34.707031 -10.472656 34.679688 -9.800781 34.703125 -9.125 C 34.671875 -9 34.632812 -8.769531 34.59375 -8.4375 C 34.539062 -7.800781 34.578125 -7.113281 34.703125 -6.375 C 34.828125 -5.632812 35.398438 -4.988281 36.421875 -4.4375 C 37.523438 -3.832031 38.707031 -3.710938 39.96875 -4.078125 C 40.375 -4.191406 40.753906 -4.328125 41.109375 -4.484375 C 41.460938 -4.648438 41.789062 -4.847656 42.09375 -5.078125 C 45.125 -6.765625 47.613281 -8.820312 49.5625 -11.25 C 51.519531 -13.675781 53.148438 -16.070312 54.453125 -18.4375 C 55.453125 -20.101562 56.242188 -21.828125 56.828125 -23.609375 C 57.421875 -25.390625 57.910156 -27.015625 58.296875 -28.484375 C 58.503906 -29.421875 58.75 -30.097656 59.03125 -30.515625 C 59.320312 -30.941406 59.554688 -31.179688 59.734375 -31.234375 C 59.835938 -31.265625 59.972656 -31.210938 60.140625 -31.078125 Z M 60.140625 -31.078125 "/></g></g><g style="fill:#373434;fill-opacity:1;"><g transform="translate(276.442391, 107.342234)"><path style="stroke:none" d="M 26.671875 -22.859375 C 27.148438 -22.929688 27.429688 -22.921875 27.515625 -22.828125 C 27.671875 -22.492188 27.5625 -22.117188 27.1875 -21.703125 C 26.820312 -21.285156 26.382812 -20.894531 25.875 -20.53125 C 25.363281 -20.164062 24.972656 -19.914062 24.703125 -19.78125 C 23.347656 -18.882812 21.925781 -18.21875 20.4375 -17.78125 C 19.0625 -17.382812 17.679688 -17.132812 16.296875 -17.03125 C 15.566406 -17.007812 14.941406 -16.921875 14.421875 -16.765625 C 13.054688 -16.367188 12.265625 -15.363281 12.046875 -13.75 C 11.460938 -9.613281 9.710938 -5.851562 6.796875 -2.46875 C 6.429688 -2.039062 5.984375 -1.609375 5.453125 -1.171875 C 4.929688 -0.742188 4.328125 -0.429688 3.640625 -0.234375 C 2.785156 0.015625 1.882812 0 0.9375 -0.28125 C -0.414062 -0.6875 -1.335938 -1.40625 -1.828125 -2.4375 C -2.328125 -3.46875 -2.710938 -4.566406 -2.984375 -5.734375 C -4.335938 -11.640625 -3.535156 -17.382812 -0.578125 -22.96875 C -0.222656 -23.632812 0.132812 -24.296875 0.5 -24.953125 C 0.875 -25.617188 1.238281 -26.285156 1.59375 -26.953125 C 2.226562 -27.953125 3.0625 -28.597656 4.09375 -28.890625 C 4.769531 -29.097656 5.5 -29.15625 6.28125 -29.0625 C 8.082031 -28.789062 9.585938 -27.648438 10.796875 -25.640625 C 11.847656 -23.972656 12.398438 -22.210938 12.453125 -20.359375 C 12.492188 -19.328125 12.785156 -18.640625 13.328125 -18.296875 C 13.929688 -17.910156 14.84375 -17.875 16.0625 -18.1875 C 16.800781 -18.394531 17.515625 -18.601562 18.203125 -18.8125 C 19.859375 -19.289062 21.332031 -19.84375 22.625 -20.46875 C 22.914062 -20.550781 23.1875 -20.691406 23.4375 -20.890625 C 23.695312 -21.085938 23.941406 -21.3125 24.171875 -21.5625 C 24.472656 -21.78125 24.789062 -22.015625 25.125 -22.265625 C 25.457031 -22.515625 25.828125 -22.695312 26.234375 -22.8125 C 26.398438 -22.863281 26.546875 -22.878906 26.671875 -22.859375 Z M 9.203125 -16.828125 C 9.160156 -16.992188 9.113281 -17.164062 9.0625 -17.34375 C 8.800781 -17.570312 8.554688 -17.742188 8.328125 -17.859375 C 8.109375 -17.984375 7.890625 -18.101562 7.671875 -18.21875 C 7.148438 -18.507812 6.632812 -18.78125 6.125 -19.03125 C 5.625 -19.289062 5.085938 -19.550781 4.515625 -19.8125 C 4.378906 -19.84375 4.160156 -19.960938 3.859375 -20.171875 C 3.546875 -20.398438 3.226562 -20.585938 2.90625 -20.734375 C 2.582031 -20.878906 2.28125 -20.914062 2 -20.84375 C 1.644531 -20.738281 1.378906 -20.472656 1.203125 -20.046875 C 0.222656 -17.222656 -0.457031 -14.515625 -0.84375 -11.921875 C -1.226562 -9.328125 -1.050781 -6.648438 -0.3125 -3.890625 C -0.0390625 -2.984375 0.425781 -2.351562 1.09375 -2 C 1.507812 -1.800781 1.972656 -1.78125 2.484375 -1.9375 C 2.890625 -2.050781 3.289062 -2.289062 3.6875 -2.65625 C 5.78125 -4.570312 7.1875 -6.75 7.90625 -9.1875 C 8.625 -11.632812 9.101562 -13.910156 9.34375 -16.015625 C 9.375 -16.160156 9.328125 -16.429688 9.203125 -16.828125 Z M 8.875 -20.4375 C 8.84375 -21.226562 8.710938 -22.007812 8.484375 -22.78125 C 8.253906 -23.550781 7.628906 -24.191406 6.609375 -24.703125 C 6.304688 -24.921875 5.953125 -24.972656 5.546875 -24.859375 C 5.148438 -24.742188 4.816406 -24.457031 4.546875 -24 C 4.273438 -23.550781 4.125 -23.164062 4.09375 -22.84375 C 4.0625 -21.90625 4.382812 -21.210938 5.0625 -20.765625 C 5.75 -20.316406 6.488281 -19.925781 7.28125 -19.59375 C 7.476562 -19.53125 7.695312 -19.453125 7.9375 -19.359375 C 8.1875 -19.273438 8.421875 -19.175781 8.640625 -19.0625 L 9.078125 -18.828125 L 9.078125 -19.1875 C 9.003906 -19.414062 8.960938 -19.640625 8.953125 -19.859375 C 8.953125 -20.078125 8.925781 -20.269531 8.875 -20.4375 Z M 8.875 -20.4375 "/></g></g><g style="fill:#373434;fill-opacity:1;"><g transform="translate(305.458599, 98.85374)"><path style="stroke:none" d="M 24.671875 -23.65625 L 24.859375 -23.328125 C 24.972656 -23.128906 24.78125 -22.894531 24.28125 -22.625 C 23.78125 -22.351562 23.359375 -22.132812 23.015625 -21.96875 C 22.703125 -21.8125 22.515625 -21.726562 22.453125 -21.71875 C 21.722656 -21.25 20.984375 -20.800781 20.234375 -20.375 C 19.492188 -19.945312 18.769531 -19.46875 18.0625 -18.9375 C 15.300781 -17.144531 13 -15.382812 11.15625 -13.65625 C 9.738281 -12.332031 8.484375 -10.882812 7.390625 -9.3125 C 6.304688 -7.75 5.90625 -5.742188 6.1875 -3.296875 C 6.65625 1.210938 5.289062 5.953125 2.09375 10.921875 C 0.84375 12.828125 -0.632812 14.03125 -2.34375 14.53125 C -3.539062 14.875 -4.675781 14.804688 -5.75 14.328125 C -7.175781 13.691406 -8.125 12.578125 -8.59375 10.984375 C -9.0625 9.390625 -8.90625 7.695312 -8.125 5.90625 C -7.195312 3.59375 -5.914062 1.457031 -4.28125 -0.5 C -2.65625 -2.46875 -0.941406 -4.304688 0.859375 -6.015625 C 1.960938 -7.078125 2.425781 -8.109375 2.25 -9.109375 C 2.082031 -10.109375 1.265625 -11.234375 -0.203125 -12.484375 C -0.765625 -12.878906 -1.289062 -13.296875 -1.78125 -13.734375 C -2.28125 -14.179688 -2.789062 -14.632812 -3.3125 -15.09375 L -4.1875 -15.96875 C -6.132812 -17.6875 -6.640625 -19.394531 -5.703125 -21.09375 C -2.617188 -26.832031 2.175781 -30.867188 8.6875 -33.203125 L 9.109375 -33.328125 C 10.585938 -33.765625 11.863281 -33.640625 12.9375 -32.953125 C 14.082031 -32.242188 14.71875 -31.007812 14.84375 -29.25 C 14.945312 -27.425781 14.332031 -25.628906 13 -23.859375 C 12.914062 -23.722656 12.789062 -23.566406 12.625 -23.390625 C 12.457031 -23.222656 12.257812 -23.109375 12.03125 -23.046875 C 11.800781 -22.972656 11.515625 -23.007812 11.171875 -23.15625 C 10.753906 -23.28125 10.535156 -23.492188 10.515625 -23.796875 C 10.492188 -24.097656 10.503906 -24.472656 10.546875 -24.921875 C 10.710938 -25.648438 10.863281 -26.359375 11 -27.046875 C 11.132812 -27.742188 11.289062 -28.421875 11.46875 -29.078125 C 11.539062 -29.472656 11.566406 -29.851562 11.546875 -30.21875 C 11.523438 -30.59375 11.304688 -30.96875 10.890625 -31.34375 C 10.410156 -31.757812 9.851562 -31.875 9.21875 -31.6875 C 9.101562 -31.65625 8.914062 -31.570312 8.65625 -31.4375 L 8.40625 -31.359375 C 3.09375 -29.179688 -0.695312 -25.8125 -2.96875 -21.25 C -3.707031 -19.738281 -3.15625 -18.382812 -1.3125 -17.1875 C -0.3125 -16.539062 0.644531 -15.789062 1.5625 -14.9375 C 2.507812 -14.050781 3.375 -13.332031 4.15625 -12.78125 C 4.9375 -12.226562 5.785156 -12.085938 6.703125 -12.359375 C 7.210938 -12.503906 7.785156 -12.863281 8.421875 -13.4375 C 10.316406 -15.039062 12.28125 -16.539062 14.3125 -17.9375 C 16.351562 -19.34375 18.289062 -20.625 20.125 -21.78125 C 20.425781 -21.976562 20.90625 -22.269531 21.5625 -22.65625 C 22.226562 -23.039062 22.878906 -23.328125 23.515625 -23.515625 C 23.859375 -23.617188 24.117188 -23.660156 24.296875 -23.640625 C 24.484375 -23.628906 24.609375 -23.632812 24.671875 -23.65625 Z M -0.71875 11.53125 C 3.144531 7.8125 4.644531 2.550781 3.78125 -4.25 L 3.1875 -4.375 C 3.1875 -4.113281 2.945312 -3.742188 2.46875 -3.265625 C 2 -2.796875 1.566406 -2.378906 1.171875 -2.015625 C 0.679688 -1.554688 0.394531 -1.253906 0.3125 -1.109375 C -0.757812 0.253906 -1.707031 1.554688 -2.53125 2.796875 L -2.96875 3.484375 C -3.65625 4.546875 -4.34375 5.75 -5.03125 7.09375 C -5.71875 8.445312 -5.945312 9.738281 -5.71875 10.96875 C -5.5625 11.726562 -5.210938 12.273438 -4.671875 12.609375 C -4.160156 12.898438 -3.503906 12.929688 -2.703125 12.703125 C -2.242188 12.566406 -1.84375 12.382812 -1.5 12.15625 C -1.164062 11.9375 -0.90625 11.726562 -0.71875 11.53125 Z M -0.71875 11.53125 "/></g></g><g style="fill:#373434;fill-opacity:1;"><g transform="translate(332.249389, 91.016278)"><path style="stroke:none" d="M 12.8125 -67.40625 C 13.675781 -67.40625 14.347656 -66.914062 14.828125 -65.9375 C 14.835938 -65.644531 14.835938 -65.304688 14.828125 -64.921875 C 14.816406 -64.546875 14.773438 -64.160156 14.703125 -63.765625 C 13.671875 -55.847656 12.640625 -47.929688 11.609375 -40.015625 C 10.585938 -32.097656 10.128906 -24.03125 10.234375 -15.8125 C 10.210938 -15.488281 10.148438 -15.175781 10.046875 -14.875 C 9.953125 -14.582031 9.890625 -14.269531 9.859375 -13.9375 C 9.753906 -13.664062 9.617188 -13.441406 9.453125 -13.265625 C 9.285156 -13.085938 8.96875 -13.054688 8.5 -13.171875 C 7.957031 -13.316406 7.632812 -13.6875 7.53125 -14.28125 C 7.445312 -15 7.320312 -15.691406 7.15625 -16.359375 C 6.988281 -17.023438 6.898438 -17.695312 6.890625 -18.375 C 6.523438 -26.382812 6.757812 -34.257812 7.59375 -42 C 8.425781 -49.738281 9.492188 -57.421875 10.796875 -65.046875 C 10.890625 -65.566406 11.03125 -66.085938 11.21875 -66.609375 C 11.414062 -67.140625 11.945312 -67.40625 12.8125 -67.40625 Z M 6.703125 -6.3125 C 8.023438 -6.644531 8.984375 -6.429688 9.578125 -5.671875 C 10.171875 -4.921875 10.742188 -4.222656 11.296875 -3.578125 C 12.109375 -2.328125 12.457031 -1.207031 12.34375 -0.21875 C 12.226562 0.769531 11.53125 1.515625 10.25 2.015625 C 9.238281 2.367188 8.285156 2.289062 7.390625 1.78125 C 6.503906 1.269531 5.753906 0.609375 5.140625 -0.203125 C 4.460938 -1.242188 4.3125 -2.453125 4.6875 -3.828125 C 5.0625 -5.203125 5.734375 -6.03125 6.703125 -6.3125 Z M 6.703125 -6.3125 "/></g></g></g></g></g></g></g></g></g></svg>